<svg width="137" height="20" viewBox="0 0 137 20" fill="none" xmlns="http://www.w3.org/2000/svg">
<path d="M0 19.7883L0 1.08317H3.46714V8.40177C4.28304 7.05388 5.71057 6.2614 7.46975 6.2614C10.3754 6.2614 12.2626 8.16357 12.2626 11.0964V19.7883H8.79487V12.021C8.79487 10.436 7.85205 9.45785 6.39892 9.45785C4.51237 9.45785 3.46714 11.0964 3.46714 14.0022V19.7883H0ZM25.3731 17.7806C25.3731 18.1238 25.4243 19.1285 25.5262 19.7883H22.5943C22.4925 19.181 22.4413 18.3095 22.4413 17.9127C21.7278 19.181 20.1468 20 18.3113 20C15.7112 20 13.9008 18.283 13.9008 16.037C13.9008 13.4214 15.8387 12.0741 19.7644 11.6253L22.212 11.3341V11.2285C22.212 9.82813 21.1668 8.90357 19.6369 8.90357C18.2607 8.90357 17.2405 9.82813 17.1642 11.0964L14.2325 10.462C14.6661 7.95248 16.8331 6.2614 19.6369 6.2614C23.1297 6.2614 25.3731 8.13705 25.3731 11.7834V17.7806ZM22.212 14.4515V13.8176L19.5351 14.1348C17.9801 14.3194 17.2154 14.9014 17.2154 15.9315C17.2154 16.803 18.0313 17.4639 19.1527 17.4639C20.7077 17.4639 22.212 16.3012 22.212 14.4515ZM34.5911 20C33.0874 20 31.7105 19.3661 31.0477 18.3625V19.7883H27.5805V1.08317H31.0477V7.84692C31.7868 6.89527 33.0874 6.2614 34.6679 6.2614C38.415 6.2614 40.6839 9.00912 40.6839 13.1307C40.6839 17.2517 38.415 20 34.5911 20ZM34.0557 16.9085C35.993 16.9085 37.268 15.4291 37.268 13.1307C37.268 10.8323 35.993 9.3523 34.0557 9.3523C32.0928 9.3523 30.8434 10.8323 30.8434 13.1307C30.8434 15.4291 32.0928 16.9085 34.0557 16.9085ZM44.1174 4.43824C42.8941 4.43824 41.9508 3.46061 41.9508 2.2194C41.9508 0.977616 42.8941 0 44.1174 0C45.3417 0 46.2845 0.977616 46.2845 2.2194C46.2845 3.46061 45.3417 4.43824 44.1174 4.43824ZM42.3844 19.7883V6.4725H45.8515V19.7883H42.3844ZM55.7884 19.6568C55.1507 19.895 54.4628 20 53.7231 20C51.0212 20 49.0071 18.5206 49.0071 15.3501V9.2998H46.8912V6.4725H49.0071V2.51009H52.398V6.4725H55.661V9.2998H52.398V14.8483C52.398 16.1691 53.0096 16.8295 54.0799 16.8295C54.539 16.8295 55.1 16.7505 55.533 16.5394L55.7884 19.6568ZM68.033 17.7806C68.033 18.1238 68.0836 19.1285 68.1855 19.7883H65.2542C65.1518 19.181 65.1012 18.3095 65.1012 17.9127C64.3871 19.181 62.8066 20 60.9712 20C58.3705 20 56.5607 18.283 56.5607 16.037C56.5607 13.4214 58.498 12.0741 62.4243 11.6253L64.8714 11.3341V11.2285C64.8714 9.82813 63.8256 8.90357 62.2969 8.90357C60.92 8.90357 59.9005 9.82813 59.8237 11.0964L56.8919 10.462C57.3254 7.95248 59.4925 6.2614 62.2969 6.2614C65.7891 6.2614 68.033 8.13705 68.033 11.7834V17.7806ZM64.8714 14.4515V13.8176L62.1945 14.1348C60.6395 14.3194 59.8749 14.9014 59.8749 15.9315C59.8749 16.803 60.6907 17.4639 61.8122 17.4639C63.3676 17.4639 64.8714 16.3012 64.8714 14.4515ZM77.251 20C75.7467 20 74.3698 19.3661 73.707 18.3625V19.7883H70.2399V1.08317H73.707V7.84692C74.4461 6.89527 75.7467 6.2614 77.3272 6.2614C81.0743 6.2614 83.3428 9.00912 83.3428 13.1307C83.3428 17.2517 81.0743 20 77.251 20ZM76.715 16.9085C78.6529 16.9085 79.9273 15.4291 79.9273 13.1307C79.9273 10.8323 78.6529 9.3523 76.715 9.3523C74.7522 9.3523 73.5028 10.8323 73.5028 13.1307C73.5028 15.4291 74.7522 16.9085 76.715 16.9085ZM85.1761 19.7883V1.08317H88.6688V19.7883H85.1761ZM103.061 12.6814C103.061 13.2103 103.036 13.7911 103.011 14.0824H93.6038C93.9355 15.8519 95.1081 17.0406 96.7649 17.0406C98.218 17.0406 99.2119 16.5129 100.002 15.1125L102.807 16.1691C101.608 18.6786 99.7478 20 96.7905 20C92.4312 20 90.4171 16.5129 90.4171 13.1307C90.4171 9.74854 92.4312 6.2614 96.7905 6.2614C101.277 6.2614 103.061 9.66951 103.061 12.6814ZM93.6806 11.4921H99.6972C99.5436 10.0133 98.524 8.90357 96.7905 8.90357C95.2093 8.90357 94.0885 9.72258 93.6806 11.4921ZM106.397 20C105.224 20 104.306 19.0754 104.306 17.8596C104.306 16.6449 105.224 15.7198 106.397 15.7198C107.594 15.7198 108.512 16.6449 108.512 17.8596C108.512 19.0754 107.594 20 106.397 20ZM116.229 20C112.227 20 109.626 16.9881 109.626 13.1307C109.626 9.27328 112.227 6.2614 116.229 6.2614C119.237 6.2614 121.481 7.66178 122.373 10.2244L119.313 11.4921C118.88 10.1719 117.784 9.3523 116.33 9.3523C114.342 9.3523 113.221 10.9378 113.221 13.1307C113.221 15.3236 114.368 16.9085 116.382 16.9085C117.784 16.9085 118.88 16.1161 119.339 14.9014L122.322 16.1691C121.226 18.7582 119.237 20 116.229 20ZM129.86 20C125.883 20 123.053 17.1462 123.053 13.1307C123.053 9.11467 125.883 6.2614 129.86 6.2614C133.837 6.2614 136.667 9.11467 136.667 13.1307C136.667 17.1462 133.837 20 129.86 20ZM129.86 16.9085C131.823 16.9085 133.199 15.3501 133.199 13.1307C133.199 10.9113 131.823 9.3523 129.86 9.3523C127.897 9.3523 126.546 10.9113 126.546 13.1307C126.546 15.3501 127.897 16.9085 129.86 16.9085Z" fill="#2A2438"/>
</svg>
